<svg width="11" height="13" viewBox="0 0 11 13" fill="none" xmlns="http://www.w3.org/2000/svg">
<path d="M5.92308 10.9391C7.21135 9.76009 8.16962 8.69455 8.79789 7.72989C9.42616 6.76523 9.73712 5.91406 9.73712 5.17007C9.73712 4.02257 9.36904 3.08943 8.63289 2.35806C7.89674 1.62668 6.99558 1.26099 5.92943 1.26099C4.86327 1.26099 3.96212 1.62668 3.22597 2.35806C2.48981 3.08943 2.12173 4.02887 2.12173 5.17007C2.12173 5.91406 2.4327 6.77153 3.06097 7.72989C3.68923 8.68824 4.64116 9.76009 5.93577 10.9391H5.92308ZM5.92308 12.1875C5.77712 12.1875 5.62481 12.1623 5.47885 12.1055C5.33289 12.0488 5.19962 11.9731 5.07904 11.8659C4.39366 11.2354 3.78443 10.6176 3.25135 10.0186C2.71827 9.41962 2.28039 8.83956 1.925 8.27842C1.56962 7.71728 1.30308 7.17505 1.1127 6.65174C0.922312 6.12843 0.833466 5.63664 0.833466 5.16377C0.846158 3.59383 1.35385 2.33914 2.37558 1.40601C3.39731 0.466568 4.5777 0 5.92308 0C7.26847 0 8.44885 0.466568 9.47058 1.40601C10.4923 2.34545 11 3.60014 11 5.17638C11 5.64925 10.9048 6.14734 10.7208 6.66435C10.5367 7.18136 10.2639 7.72358 9.90847 8.29103C9.55308 8.85848 9.1152 9.43223 8.58212 10.0312C8.04904 10.6302 7.44616 11.2481 6.75443 11.8786C6.6402 11.9857 6.50693 12.0614 6.35462 12.1181C6.20866 12.1686 6.05635 12.2001 5.91039 12.2001L5.92308 12.1875ZM5.92308 6.30497C6.27212 6.30497 6.57039 6.17887 6.81789 5.93297C7.06539 5.68708 7.19231 5.39075 7.19231 5.04397C7.19231 4.6972 7.06539 4.40087 6.81789 4.15497C6.57039 3.90908 6.27212 3.78298 5.92308 3.78298C5.57404 3.78298 5.27577 3.90908 5.02827 4.15497C4.78077 4.40087 4.65385 4.6972 4.65385 5.04397C4.65385 5.39075 4.78077 5.68708 5.02827 5.93297C5.27577 6.17887 5.57404 6.30497 5.92308 6.30497Z" fill="#666666"/>
</svg>
