<svg width="12" height="12" viewBox="0 0 12 12" fill="none" xmlns="http://www.w3.org/2000/svg">
<g clip-path="url(#clip0_1_51)">
<path d="M5.99999 12C5.17799 12 4.40399 11.844 3.67199 11.526C2.93999 11.208 2.30399 10.782 1.75799 10.236C1.21199 9.69001 0.779988 9.05401 0.467988 8.32201C0.155988 7.59001 -0.00601196 6.81601 -0.00601196 5.99401C-0.00601196 5.17201 0.149988 4.38601 0.467988 3.66001C0.785988 2.93401 1.21199 2.29801 1.75799 1.75201C2.30399 1.20601 2.93999 0.774006 3.67199 0.462007C4.40399 0.150007 5.17799 -0.0119934 5.99999 -0.0119934C6.82199 -0.0119934 7.60799 0.144007 8.33399 0.462007C9.05999 0.780007 9.69599 1.20601 10.242 1.75201C10.788 2.29801 11.22 2.93401 11.532 3.66001C11.844 4.38601 12.006 5.16001 12.006 5.99401C12.006 6.82801 11.85 7.59001 11.532 8.32201C11.214 9.05401 10.788 9.69001 10.242 10.236C9.69599 10.782 9.05999 11.214 8.33399 11.526C7.60799 11.838 6.83399 12 5.99999 12ZM5.99999 10.77C6.25799 10.41 6.48599 10.032 6.67799 9.64201C6.86999 9.25201 7.02599 8.83801 7.14599 8.39401H4.86599C4.98599 8.83201 5.14199 9.25201 5.33399 9.64201C5.52599 10.032 5.74799 10.41 6.01199 10.77H5.99999ZM4.43999 10.53C4.25999 10.2 4.10399 9.85801 3.96599 9.50401C3.82799 9.15001 3.71999 8.78401 3.62999 8.40001H1.85999C2.14799 8.89801 2.51399 9.33601 2.94599 9.70801C3.38399 10.08 3.87599 10.356 4.43999 10.536V10.53ZM7.55999 10.53C8.11799 10.35 8.61599 10.074 9.05399 9.70201C9.49199 9.33001 9.85199 8.89801 10.14 8.39401H8.36999C8.27999 8.77201 8.16599 9.14401 8.03399 9.49801C7.89599 9.85201 7.73999 10.194 7.55999 10.524V10.53ZM1.34999 7.20001H3.38999C3.35999 7.00201 3.33599 6.80401 3.32399 6.60601C3.31199 6.40801 3.29999 6.21001 3.29999 6.00001C3.29999 5.79001 3.30599 5.58601 3.32399 5.39401C3.34199 5.20201 3.35999 5.00401 3.38999 4.80001H1.34999C1.30199 4.99801 1.25999 5.19601 1.23599 5.39401C1.21199 5.59201 1.19999 5.79001 1.19999 6.00001C1.19999 6.21001 1.21199 6.41401 1.23599 6.60601C1.25999 6.79801 1.29599 6.99601 1.34999 7.20001ZM4.58999 7.20001H7.40999C7.43999 7.00201 7.46399 6.80401 7.47599 6.60601C7.48799 6.40801 7.49999 6.21001 7.49999 6.00001C7.49999 5.79001 7.49399 5.58601 7.47599 5.39401C7.45799 5.20201 7.43999 5.00401 7.40999 4.80001H4.58999C4.55999 4.99801 4.53599 5.19601 4.52399 5.39401C4.51199 5.59201 4.49999 5.79001 4.49999 6.00001C4.49999 6.21001 4.50599 6.41401 4.52399 6.60601C4.54199 6.79801 4.55999 6.99601 4.58999 7.20001ZM8.60999 7.20001H10.65C10.698 7.00201 10.74 6.80401 10.764 6.60601C10.788 6.40801 10.8 6.21001 10.8 6.00001C10.8 5.79001 10.788 5.58601 10.764 5.39401C10.74 5.20201 10.704 5.00401 10.65 4.80001H8.60999C8.63999 4.99801 8.66399 5.19601 8.67599 5.39401C8.68799 5.59201 8.69999 5.79001 8.69999 6.00001C8.69999 6.21001 8.69399 6.41401 8.67599 6.60601C8.65799 6.79801 8.63999 6.99601 8.60999 7.20001ZM8.36999 3.60001H10.14C9.85199 3.10201 9.48599 2.66401 9.05399 2.29201C8.62199 1.92001 8.12399 1.64401 7.55999 1.46401C7.73999 1.79401 7.89599 2.13601 8.03399 2.49001C8.17199 2.84401 8.27999 3.21001 8.36999 3.59401V3.60001ZM4.85999 3.60001H7.13999C7.01999 3.16201 6.86399 2.74201 6.67199 2.35201C6.47999 1.96201 6.25799 1.58401 5.99399 1.22401C5.73599 1.58401 5.50799 1.96201 5.31599 2.35201C5.12399 2.74201 4.96799 3.15601 4.84799 3.60001H4.85999ZM1.85999 3.60001H3.62999C3.71999 3.22201 3.83399 2.85001 3.96599 2.49601C4.09799 2.14201 4.25999 1.80001 4.43999 1.47001C3.88199 1.65001 3.38399 1.92601 2.94599 2.29801C2.50799 2.67001 2.14799 3.10201 1.85999 3.60601V3.60001Z" fill="#666666"/>
</g>
<defs>
<clipPath id="clip0_1_51">
<rect width="12" height="12" fill="white"/>
</clipPath>
</defs>
</svg>
