<svg width="14" height="12" viewBox="0 0 14 12" fill="none" xmlns="http://www.w3.org/2000/svg">
<g clip-path="url(#clip0_1_70)">
<path d="M13.8424 2.67636C13.6399 2.48 13.2647 2.48 13.0622 2.67636L12.0268 3.67273V3.10545C12.0043 2.99636 11.9668 2.86545 11.9068 2.74182C11.8467 2.62545 11.7642 2.51636 11.6667 2.42182L9.55091 0.363636C9.43087 0.247273 9.28832 0.16 9.13076 0.0945455C8.97321 0.0290909 8.80815 0 8.62808 0H5.37192C5.19185 0 5.0268 0.0290909 4.86924 0.0945455C4.71168 0.16 4.56913 0.247273 4.44909 0.363636L2.33333 2.42182C2.2358 2.51636 2.15327 2.61818 2.09325 2.73455C2.03323 2.85091 1.99571 2.98182 1.9732 3.12V3.67273L0.937835 2.67636C0.8403 2.57455 0.712755 2.53091 0.547696 2.53091C0.382637 2.53091 0.255091 2.57455 0.157556 2.67636C0.0525188 2.77091 0 2.89455 0 3.05455C0 3.21455 0.0525188 3.33818 0.157556 3.43273L2.11576 5.33818L2.53591 10.8218C2.55841 11.1709 2.69346 11.44 2.94105 11.6655C3.19614 11.8909 3.49625 12 3.84887 12H10.1511C10.5038 12 10.8039 11.8909 11.0589 11.6655C11.3065 11.44 11.4416 11.1636 11.4641 10.8218L11.8842 5.33818L13.8424 3.43273C13.9475 3.33818 14 3.21455 14 3.05455C14 2.89455 13.9475 2.77091 13.8424 2.67636ZM10.8339 4.36364H3.18864L3.0911 3.2L5.3119 1.09091H8.6881L10.9089 3.2L10.8339 4.36364Z" fill="#666666"/>
<path d="M3.27118 5.45454L3.67632 10.9091H10.3612L10.7438 5.45454H3.27118ZM3.27118 5.45454L3.67632 10.9091H10.3612L10.7438 5.45454H3.27118ZM3.27118 5.45454L3.67632 10.9091H10.3612L10.7438 5.45454H3.27118ZM3.27118 5.45454L3.67632 10.9091H10.3612L10.7438 5.45454H3.27118ZM3.27118 5.45454L3.67632 10.9091H10.3612L10.7438 5.45454H3.27118ZM3.27118 5.45454L3.67632 10.9091H10.3612L10.7438 5.45454H3.27118ZM3.27118 5.45454L3.67632 10.9091H10.3612L10.7438 5.45454H3.27118ZM3.27118 5.45454L3.67632 10.9091H10.3612L10.7438 5.45454H3.27118ZM3.27118 5.45454L3.67632 10.9091H10.3612L10.7438 5.45454H3.27118ZM3.27118 5.45454L3.67632 10.9091H10.3612L10.7438 5.45454H3.27118ZM3.27118 5.45454L3.67632 10.9091H10.3612L10.7438 5.45454H3.27118ZM3.27118 5.45454L3.67632 10.9091H10.3612L10.7438 5.45454H3.27118ZM3.27118 5.45454L3.67632 10.9091H10.3612L10.7438 5.45454H3.27118Z" fill="white"/>
</g>
<defs>
<clipPath id="clip0_1_70">
<rect width="14" height="12" fill="white"/>
</clipPath>
</defs>
</svg>
