<svg width="12" height="12" viewBox="0 0 12 12" fill="none" xmlns="http://www.w3.org/2000/svg">
<path d="M6.59999 5.76001V3.60001C6.59999 3.43201 6.53999 3.28801 6.42599 3.17401C6.31199 3.06001 6.16799 3.00001 5.99999 3.00001C5.83199 3.00001 5.68799 3.06001 5.57399 3.17401C5.45999 3.28801 5.39999 3.43201 5.39999 3.60001V5.98801C5.39999 6.06601 5.41799 6.14401 5.44799 6.22201C5.47799 6.30001 5.52599 6.36601 5.58599 6.42601L7.56599 8.40601C7.67399 8.51401 7.81799 8.57401 7.98599 8.57401C8.15399 8.57401 8.29799 8.52001 8.40599 8.40601C8.51399 8.29201 8.57399 8.15401 8.57399 7.98601C8.57399 7.81801 8.51999 7.67401 8.40599 7.56601L6.60599 5.76601L6.59999 5.76001ZM5.99999 12C5.17199 12 4.39199 11.844 3.65999 11.526C2.92799 11.208 2.29199 10.782 1.75199 10.242C1.21199 9.70201 0.785988 9.06601 0.467988 8.33401C0.149988 7.60201 -0.00601196 6.82201 -0.00601196 5.99401C-0.00601196 5.16601 0.149988 4.38601 0.467988 3.65401C0.785988 2.92201 1.21199 2.28601 1.75199 1.74601C2.29199 1.20601 2.92799 0.780007 3.65999 0.462007C4.39199 0.144007 5.17199 -0.0119934 5.99999 -0.0119934C6.82799 -0.0119934 7.60799 0.144007 8.33999 0.462007C9.07199 0.780007 9.70799 1.20601 10.248 1.74601C10.788 2.28601 11.214 2.92201 11.532 3.65401C11.85 4.38601 12.006 5.16601 12.006 5.99401C12.006 6.82201 11.85 7.60201 11.532 8.33401C11.214 9.06601 10.788 9.70201 10.248 10.242C9.70799 10.782 9.07199 11.208 8.33999 11.526C7.60799 11.844 6.82799 12 5.99999 12ZM5.99999 10.8C7.33199 10.8 8.45999 10.332 9.39599 9.39601C10.332 8.46001 10.8 7.32601 10.8 6.00001C10.8 4.67401 10.332 3.54001 9.39599 2.60401C8.45999 1.66801 7.32599 1.20001 5.99999 1.20001C4.67399 1.20001 3.53999 1.66801 2.60399 2.60401C1.66799 3.54001 1.19999 4.67401 1.19999 6.00001C1.19999 7.32601 1.66799 8.46001 2.60399 9.39601C3.53999 10.332 4.67399 10.8 5.99999 10.8Z" fill="#666666"/>
</svg>
