<svg width="12" height="12" viewBox="0 0 12 12" fill="none" xmlns="http://www.w3.org/2000/svg">
<g clip-path="url(#clip0_1_151)">
<path d="M7.12201 3.756C7.12201 3.84 7.12201 3.9 7.12201 3.966C7.12201 4.482 7.12201 5.004 7.12201 5.52C7.12201 6.288 7.59001 6.75 8.35201 6.756C8.86201 6.756 9.36601 6.756 9.87601 6.756C9.99001 6.756 10.056 6.786 10.104 6.894C10.242 7.182 10.386 7.47 10.53 7.752C10.578 7.842 10.572 7.902 10.512 7.986C8.93401 10.02 6.88201 11.292 4.35601 11.808C3.23401 12.036 2.09401 12.012 0.960013 11.988C0.474013 11.982 0.0540126 11.574 0.00601257 11.1C-0.0539874 10.578 0.258013 10.104 0.762013 9.966C1.12201 9.87 1.48801 9.798 1.85401 9.72C2.86801 9.51 3.60001 8.94 4.06201 8.016C4.74001 6.654 5.43001 5.292 6.10801 3.924C6.16801 3.804 6.23401 3.75 6.37201 3.756C6.61201 3.768 6.85801 3.756 7.12801 3.756H7.12201Z" fill="#DADADA"/>
<path d="M10.086 2.34C10.182 2.028 10.188 1.722 10.098 1.422C10.044 1.236 9.95401 1.056 9.85801 0.882004C9.73201 0.636004 9.73201 0.390004 9.88801 0.210004C10.038 0.0360036 10.284 -0.0539964 10.482 0.0360036C10.614 0.0960036 10.746 0.198004 10.818 0.318004C11.322 1.14 11.412 2.004 11.052 2.904C10.998 3.036 11.028 3.114 11.112 3.21C11.988 4.266 12.192 5.46 11.82 6.762C11.766 6.954 11.676 7.128 11.442 7.134C11.208 7.14 11.028 7.038 10.92 6.822C10.848 6.672 10.776 6.516 10.71 6.36C10.596 6.114 10.404 5.988 10.128 5.988C9.61201 5.988 9.09001 5.988 8.57401 5.988C8.09401 5.988 7.88401 5.772 7.88401 5.292C7.88401 4.746 7.88401 4.2 7.88401 3.648C7.88401 3.198 7.66801 2.988 7.21801 2.982C7.06801 2.982 6.91201 2.982 6.76801 2.952C6.55801 2.916 6.42601 2.778 6.41401 2.598C6.39601 2.406 6.52201 2.298 6.67201 2.22C7.09201 2.01 7.54801 1.902 8.01601 1.878C8.70601 1.842 9.36001 1.956 9.97801 2.286C10.008 2.304 10.038 2.31 10.086 2.328V2.34Z" fill="#DADADA"/>
</g>
<defs>
<clipPath id="clip0_1_151">
<rect width="12" height="12" fill="white"/>
</clipPath>
</defs>
</svg>
