<svg width="12" height="12" viewBox="0 0 12 12" fill="none" xmlns="http://www.w3.org/2000/svg">
<path d="M11.3 12C9.91333 12 8.54 11.7 7.18 11.0933C5.82667 10.4867 4.59333 9.62667 3.48 8.52C2.36667 7.41333 1.51333 6.17333 0.906667 4.82C0.3 3.46 0 2.08667 0 0.7C0 0.5 0.0666667 0.333333 0.2 0.2C0.333333 0.0666667 0.5 0 0.7 0H3.4C3.55333 0 3.69333 0.0533333 3.82 0.16C3.94667 0.266667 4.01333 0.393333 4.04 0.533333L4.47333 2.86667C4.49333 3.04667 4.49333 3.19333 4.45333 3.32C4.41333 3.44667 4.36 3.54667 4.26667 3.64L2.64667 5.27333C2.86667 5.68667 3.13333 6.08 3.44 6.46667C3.74667 6.85333 4.08 7.22 4.44667 7.57333C4.79333 7.92 5.15333 8.24 5.53333 8.53333C5.91333 8.82667 6.31333 9.1 6.73333 9.34L8.3 7.77333C8.4 7.67333 8.53333 7.6 8.69333 7.54667C8.85333 7.49333 9.01333 7.48 9.16667 7.50667L11.4667 7.97333C11.62 8.02 11.7533 8.1 11.8533 8.21333C11.9533 8.32667 12.0067 8.46 12.0067 8.60667V11.3067C12.0067 11.5067 11.94 11.6733 11.8067 11.8067C11.6733 11.94 11.5067 12.0067 11.3067 12.0067L11.3 12ZM2.02 4L3.12 2.9L2.83333 1.33333H1.34667C1.4 1.78667 1.48 2.24 1.58 2.68667C1.68 3.13333 1.82667 3.57333 2.01333 4.00667L2.02 4ZM7.98667 9.96667C8.42 10.1533 8.86 10.3067 9.31333 10.42C9.76667 10.5333 10.2133 10.6067 10.6733 10.64V9.17333L9.10667 8.85333L7.98667 9.97333V9.96667Z" fill="#666666"/>
</svg>
